<svg xmlns="http://www.w3.org/2000/svg" version="1.1" xmlns:xlink="http://www.w3.org/1999/xlink" xmlns:svgjs="http://svgjs.dev/svgjs" width="2000" height="1500" viewBox="0 0 2000 1500">
  <rect width="2000" height="1500" fill="transparent"></rect>
  <g transform="matrix(0.75,0,0,0.75,249.090909090909,496.81450295939794)">
    <svg viewBox="0 0 396 134" data-background-color="transparent" preserveAspectRatio="xMidYMid meet" height="676" width="2000" xmlns="http://www.w3.org/2000/svg" xmlns:xlink="http://www.w3.org/1999/xlink">
      <g id="tight-bounds" transform="matrix(1,0,0,1,0.2400000000000091,-0.08312307013673603)">
        <svg viewBox="0 0 395.52 134.16624614027347" height="134.16624614027347" width="395.52">
          <g>
            <svg viewBox="0 0 395.52 134.16624614027347" height="134.16624614027347" width="395.52">
              <g>
                <svg viewBox="0 0 395.52 134.16624614027347" height="134.16624614027347" width="395.52">
                  <g id="textblocktransform">
                    <svg viewBox="0 0 395.52 134.16624614027347" height="134.16624614027347" width="395.52" id="textblock">
                      <g>
                        <svg viewBox="0 0 395.52 134.16624614027347" height="134.16624614027347" width="395.52">
                          <g transform="matrix(1,0,0,1,0,0)">
                            <svg width="395.52" viewBox="3.69 -37.55 110.68 37.55" height="134.16624614027347" data-palette-color="#7a26c1">
                              <path d="M35.84-6.35L35.84 0 6.88 0Q6.2 0 5.62-0.24 5.03-0.49 4.6-0.92 4.17-1.34 3.93-1.93 3.69-2.51 3.69-3.2L3.69-3.2 3.69-35.01 10.03-35.01 10.03-6.35 35.84-6.35ZM46.24-37.55L46.24-31.81 39.89-31.81 39.89-37.55 46.24-37.55ZM46.24-26.39L46.24 0 39.89 0 39.89-26.39 46.24-26.39ZM81.56-14.65L81.56 0 75.21 0 75.21-14.65Q75.21-15.89 74.79-16.88 74.36-17.87 73.63-18.58 72.9-19.29 71.91-19.67 70.92-20.04 69.77-20.04L69.77-20.04 58.66-20.04 58.66 0 52.31 0 52.31-23.24Q52.31-23.9 52.56-24.48 52.8-25.05 53.24-25.48 53.68-25.9 54.27-26.15 54.85-26.39 55.51-26.39L55.51-26.39 69.82-26.39Q71.02-26.39 72.35-26.12 73.68-25.85 74.98-25.26 76.29-24.66 77.47-23.74 78.66-22.83 79.57-21.52 80.49-20.21 81.03-18.51 81.56-16.8 81.56-14.65L81.56-14.65ZM114.37-17.65L114.37-8.74Q114.37-7.42 113.91-5.9 113.44-4.37 112.41-3.06 111.37-1.76 109.7-0.88 108.02 0 105.63 0L105.63 0 94.18 0Q92.86 0 91.34-0.46 89.81-0.93 88.51-1.97 87.2-3 86.32-4.68 85.44-6.35 85.44-8.74L85.44-8.74Q85.44-10.06 85.91-11.6 86.37-13.13 87.41-14.44 88.44-15.75 90.12-16.63 91.79-17.5 94.18-17.5L94.18-17.5 105.63-17.5 105.63-11.45 94.18-11.45Q92.89-11.45 92.18-10.66 91.47-9.86 91.47-8.69L91.47-8.69Q91.47-7.45 92.29-6.75 93.11-6.05 94.23-6.05L94.23-6.05 105.63-6.05Q106.93-6.05 107.63-6.84 108.34-7.62 108.34-8.79L108.34-8.79 108.34-17.65Q108.34-18.9 107.57-19.63 106.8-20.36 105.63-20.36L105.63-20.36 91.69-20.36 91.69-26.39 105.63-26.39Q106.95-26.39 108.48-25.93 110-25.46 111.31-24.43 112.61-23.39 113.49-21.72 114.37-20.04 114.37-17.65L114.37-17.65Z" opacity="1" transform="matrix(1,0,0,1,0,0)" fill="black" class="wordmark-text-0" data-fill-palette-color="primary" id="text-0"></path>
                            </svg>
                          </g>
                        </svg>
                      </g>
                    </svg>
                  </g>
                </svg>
              </g>
            </svg>
          </g>
        </svg>
      </g>
      <defs></defs>
    </svg>
  </g>
</svg>
