<svg width="504" height="520" viewBox="0 0 504 520" fill="none" xmlns="http://www.w3.org/2000/svg">
<rect y="120" width="385" height="296" rx="60" fill="black"/>
<path d="M59.7802 418.136C59.8054 412.283 64.4104 407.474 70.2574 407.196L168.511 402.522C178.969 402.024 184.143 415.038 176.197 421.857L133.5 458.5L81.8405 503.272C81.2816 503.756 80.6753 504.183 80.0307 504.545L75.8345 506.907C68.4836 511.043 59.4039 505.708 59.4401 497.273L59.7802 418.136Z" fill="black"/>
<path d="M355 283.5C428.792 283.5 488.5 223.444 488.5 149.5C488.5 75.5557 428.792 15.5 355 15.5C281.208 15.5 221.5 75.5557 221.5 149.5C221.5 223.444 281.208 283.5 355 283.5Z" fill="black" stroke="white" stroke-width="31"/>
<rect x="340" y="89" width="30" height="120" rx="15" fill="#D9D9D9"/>
<rect x="415" y="133.999" width="30" height="120" rx="15" transform="rotate(89.9989 415 133.999)" fill="#D9D9D9"/>
</svg>
